<?xml version="1.0" encoding="utf-8"?>
<!-- Generator: Adobe Illustrator 25.1.0, SVG Export Plug-In . SVG Version: 6.00 Build 0)  -->
<svg version="1.1" xmlns="http://www.w3.org/2000/svg" xmlns:xlink="http://www.w3.org/1999/xlink" x="0px" y="0px"
	 viewBox="0 0 470 470" style="enable-background:new 0 0 470 470;" xml:space="preserve">
<style type="text/css">
	.st0{display:none;}
	.st1{display:inline;fill:#C54B38;}
	.st2{clip-path:url(#SVGID_2_);fill:none;stroke:#FFFFFF;stroke-width:2.25;}
	.st3{clip-path:url(#SVGID_2_);fill:#FFFFFF;}
</style>
<g id="Layer_2" class="st0">
	<rect x="0.18" y="-0.7" class="st1" width="470" height="470"/>
</g>
<g id="Layer_1">
	<g>
		<defs>
			<rect id="SVGID_1_" x="5.5" y="3.86" width="458.15" height="458.15"/>
		</defs>
		<clipPath id="SVGID_2_">
			<use xlink:href="#SVGID_1_"  style="overflow:visible;"/>
		</clipPath>
		<circle class="st2" cx="234.58" cy="232.94" r="227.95"/>
		<path class="st3" d="M362.04,255.33c0-2.77,2.38-4.75,6.34-4.75c3.34,0,5.24,1.32,6.29,2.6c-1.32,0.22-2.46,1.1-2.46,2.68
			c0,1.63,1.23,2.73,2.9,2.73s2.99-0.84,2.99-3.08c0-3.65-3.7-7.48-10.38-7.48c-6.16,0-10.25,3.43-10.25,8.36
			c0,10.6,16.41,6.73,16.41,14.83c0,2.9-2.51,5.02-6.47,5.02c-4.31,0-6.29-2.07-7.22-3.78c1.45-0.04,2.82-1.06,2.82-2.73
			c0-1.5-1.06-2.77-2.86-2.77c-1.67,0-3.3,1.14-3.3,3.52c0,3.87,3.43,8.36,10.96,8.36c6.42,0,10.78-3.65,10.78-8.67
			C378.59,259.24,362.04,262.59,362.04,255.33 M334.46,263.55h-4.05v-12.36h4.05c5.32,0,7.35,2.9,7.35,5.9
			C341.8,260.08,339.78,263.55,334.46,263.55 M349.2,275.61c-2.2,0-3.12-0.31-3.74-1.63l-1.98-3.96c-1.28-2.55-3.39-3.74-5.68-4.27
			c4.88-0.75,9.33-4.31,9.33-8.84c0-4.62-4.14-8.45-12.1-8.45H320.9v2.73h3.17c0.88,0,1.36,0.48,1.36,1.36v21.69
			c0,0.88-0.48,1.36-1.36,1.36h-3.17v2.77h14.21v-2.77h-3.34c-0.88,0-1.36-0.48-1.36-1.36v-7.92h2.73c1.76,0,3.56,0.53,4.31,2.51
			l4.09,9.55h9.81v-2.77H349.2z M310.92,269.45c-0.35,3.21-0.48,6.16-4.44,6.16h-8.54v-8.93h4.36c2.73,0,2.64,2.16,2.95,4.18h2.33
			v-11.13h-2.33c-0.31,2.02-0.31,4.18-2.95,4.18h-4.36v-12.72h7.44c3.96,0,3.96,2.99,4.31,6.16h2.86v-8.89h-24.11v2.73h3.17
			c0.88,0,1.36,0.48,1.36,1.36v21.69c0,0.88-0.48,1.36-1.36,1.36h-3.17v2.77h25.34v-8.93H310.92z M278.93,267.73
			c-0.35,4.22-0.66,7.88-4.62,7.88h-7.52v-23.06c0-0.88,0.48-1.36,1.36-1.36h4.31v-2.73h-15.18v2.73h3.17
			c0.88,0,1.36,0.48,1.36,1.36v21.69c0,0.88-0.48,1.36-1.36,1.36h-3.17v2.77h24.42v-10.65H278.93z M247.29,269.45
			c-0.35,3.21-0.48,6.16-4.44,6.16h-8.54v-8.93h4.36c2.73,0,2.64,2.16,2.95,4.18h2.33v-11.13h-2.33c-0.31,2.02-0.31,4.18-2.95,4.18
			h-4.36v-12.72h7.44c3.96,0,3.96,2.99,4.31,6.16h2.86v-8.89h-24.11v2.73h3.17c0.88,0,1.36,0.48,1.36,1.36v21.69
			c0,0.88-0.48,1.36-1.36,1.36h-3.17v2.77h25.34v-8.93H247.29z M209.32,248.46v2.73h3.34c0.7,0,1.01,0.53,0.75,1.19l-7.88,19.14
			l-7.83-19.01c-0.31-0.75,0-1.32,0.75-1.32h2.82v-2.73h-12.85v2.73H190c1.06,0,1.72,0.4,2.11,1.36l11.13,25.83h2.55l10.74-25.83
			c0.44-0.92,0.97-1.36,2.11-1.36h1.63v-2.73H209.32z M168,267.51l5.15-12.32l5.32,12.32H168z M188.95,275.61
			c-0.79,0-1.67-0.35-2.11-1.32l-11.44-25.83h-2.55l-11,25.65c-0.31,0.75-1.01,1.5-2.11,1.5h-1.67v2.77h11.09v-2.77h-3.04
			c-0.88,0-1.23-0.62-0.92-1.36l1.8-4.27h12.54l1.85,4.31c0.31,0.79-0.13,1.32-0.97,1.32h-2.73v2.77h12.76v-2.77H188.95z
			 M136.46,263.55h-4.05v-12.36h4.05c5.32,0,7.35,2.9,7.35,5.9C143.81,260.08,141.78,263.55,136.46,263.55 M151.2,275.61
			c-2.2,0-3.12-0.31-3.74-1.63l-1.98-3.96c-1.28-2.55-3.39-3.74-5.68-4.27c4.88-0.75,9.33-4.31,9.33-8.84
			c0-4.62-4.14-8.45-12.1-8.45h-14.12v2.73h3.17c0.88,0,1.36,0.48,1.36,1.36v21.69c0,0.88-0.48,1.36-1.36,1.36h-3.17v2.77h14.21
			v-2.77h-3.34c-0.88,0-1.36-0.48-1.36-1.36v-7.92h2.73c1.76,0,3.56,0.53,4.31,2.51l4.09,9.55h9.81v-2.77H151.2z M116.48,248.46
			H90.35v10.25h2.73c0.35-4.05,0.35-7.61,4.31-7.61h3.52v23.14c0,0.88-0.48,1.36-1.36,1.36h-4.18v2.77h16.06v-2.77h-4.18
			c-0.88,0-1.36-0.48-1.36-1.36V251.1h3.52c3.96,0,3.96,3.56,4.31,7.61h2.77V248.46z"/>
		<path class="st3" d="M378.1,184.33h-42.32v16.04h3.68c0.59-6.4,0.59-12.36,7.21-12.36h7.14v40.41c0,1.47-0.81,2.28-2.28,2.28
			h-7.65v3.68H370v-3.68h-7.65c-1.47,0-2.28-0.81-2.28-2.28v-40.41h7.14c6.62,0,6.62,5.96,7.21,12.36h3.68V184.33z M296.33,195.96
			c0-5.08,4.34-8.61,11.48-8.61c6.33,0,9.79,2.8,11.33,5.22c-2.06,0.22-4.2,1.69-4.2,4.27c0,2.28,1.84,4.05,4.27,4.05
			c2.36,0,4.49-1.25,4.49-4.78c0-5.74-5.81-12.51-16.85-12.51c-9.94,0-16.41,5.89-16.41,13.62c0,17.52,28.04,10.67,28.04,25.02
			c0,5.37-4.64,9.13-11.7,9.13c-8.39,0-11.7-4.42-12.95-7.58c2.36,0.15,4.78-1.4,4.78-4.2c0-2.21-1.62-4.05-4.2-4.05
			c-2.43,0-5.08,1.62-5.08,5.45c0,6.18,4.93,14.13,17.66,14.13c10.3,0,17.37-6.03,17.37-14.06
			C324.37,202.73,296.33,208.7,296.33,195.96 M272.33,188.01h5.96v-3.68h-22.74v3.68h5.96c1.47,0,2.28,0.81,2.28,2.28v38.12
			c0,1.47-0.81,2.28-2.28,2.28h-5.96v3.68h22.74v-3.68h-5.96c-1.47,0-2.28-0.81-2.28-2.28V190.3
			C270.05,188.82,270.86,188.01,272.33,188.01 M244.88,184.33h-42.32v16.04h3.68c0.59-6.4,0.59-12.36,7.21-12.36h7.14v40.41
			c0,1.47-0.81,2.28-2.28,2.28h-7.65v3.68h26.13v-3.68h-7.65c-1.47,0-2.28-0.81-2.28-2.28v-40.41h7.14c6.62,0,6.62,5.96,7.21,12.36
			h3.68V184.33z M161.35,210.24v-22.23h7.36c10.23,0,13.69,5.52,13.69,10.52s-3.46,11.7-13.69,11.7H161.35z M193.22,230.7
			c-4.12,0-5.81-0.51-6.99-2.94l-3.68-7.43c-2.06-4.2-4.86-6.04-8.32-6.92c9.13-1.84,15.09-8.1,15.09-14.94
			c0-7.88-6.99-14.13-20.61-14.13h-21.71v3.68h5.82c1.47,0,2.28,0.81,2.28,2.28v38.12c0,1.47-0.81,2.28-2.28,2.28h-5.82v3.68h23.18
			v-3.68h-6.55c-1.47,0-2.28-0.81-2.28-2.28v-14.5h5.89c3.02,0,5.82,0.96,7.07,3.68l7.95,16.78h14.79v-3.68H193.22z M103.5,216.57
			l9.35-22.15l9.79,22.15H103.5z M138.16,230.7c-1.33,0-2.8-0.59-3.53-2.21l-19.72-44.16h-2.21L93.71,228.2
			c-0.52,1.25-1.69,2.5-3.53,2.5h-2.8v3.68h18.11v-3.68h-5.45c-1.47,0-2.06-1.03-1.54-2.28l3.53-8.39h22.08l3.75,8.46
			c0.59,1.32-0.22,2.21-1.62,2.21h-4.71v3.68h19.21v-3.68H138.16z"/>
		<path class="st3" d="M259.65,139.53c-2.5,0-3.7-2.45-3.7-7.14c0-4.72,1.2-7.14,3.7-7.14c2.47,0,3.67,2.42,3.67,7.14
			C263.32,137.08,262.12,139.53,259.65,139.53 M259.65,141.31c4.36,0,7.24-3.85,7.24-8.93c0-5.08-2.88-8.93-7.24-8.93
			c-4.36,0-7.27,3.85-7.27,8.93C252.38,137.46,255.29,141.31,259.65,141.31 M245.34,135.04c-0.18,1.84-0.2,3.24-2.45,3.39
			l-4.82,0.31c5.89-4.29,8.8-6.38,8.8-10.13c0-3.52-2.75-5.15-5.99-5.15c-4.21,0-6.3,2.7-6.3,4.79c0,1.38,0.89,2.17,1.99,2.17
			c1.12,0,1.96-0.84,1.96-1.96c0-0.94-0.66-1.61-1.56-1.76c0.54-0.69,1.51-1.35,3.01-1.35c1.86,0,3.24,1.3,3.24,3.24
			c0,3.52-3.44,6.43-8.42,11.07v1.4h12.45v-6.02H245.34z M223.61,139.78c-2.04,0-3.54-1.33-3.57-3.14c0-1.17,0.61-2.37,1.89-3.21
			c2.4,1.02,4.92,1.71,4.92,3.7C226.85,138.79,225.5,139.78,223.61,139.78 M223.84,125.02c1.86,0,3.01,1.15,3.01,2.75
			c0,1.05-0.46,2.12-1.84,3.06c-2.17-0.87-4.21-1.61-4.21-3.42C220.8,125.93,222.18,125.02,223.84,125.02 M230.29,136.14
			c-0.03-2.63-1.94-3.88-4.03-4.8c1.81-0.74,3.14-1.89,3.14-3.67c0-2.35-2.35-4.18-5.66-4.18c-3.26,0-6.1,1.78-6.1,4.87
			c0,2.3,1.35,3.57,3.04,4.46c-2.52,0.97-3.54,2.58-3.54,4.16c0,2.53,2.55,4.34,6.32,4.34
			C227.38,141.31,230.32,139.43,230.29,136.14 M210.14,139.15c-0.51,0-0.79-0.28-0.79-0.79v-14.79h-2.68
			c-0.41,2.04-0.99,2.6-4.36,2.73v1.63h3.65v10.43c0,0.51-0.28,0.79-0.79,0.79h-3.03v1.91h11.22v-1.91H210.14z"/>
		<path class="st3" d="M259.98,350.14c-2.5,0-3.7-2.45-3.7-7.14c0-4.72,1.2-7.14,3.7-7.14c2.47,0,3.67,2.42,3.67,7.14
			C263.65,347.69,262.45,350.14,259.98,350.14 M259.98,351.92c4.36,0,7.24-3.85,7.24-8.93c0-5.08-2.88-8.93-7.24-8.93
			c-4.36,0-7.27,3.85-7.27,8.93C252.71,348.07,255.62,351.92,259.98,351.92 M245.67,345.65c-0.18,1.84-0.2,3.24-2.45,3.39
			l-4.82,0.31c5.89-4.28,8.8-6.38,8.8-10.13c0-3.52-2.75-5.15-5.99-5.15c-4.21,0-6.3,2.7-6.3,4.79c0,1.38,0.89,2.17,1.99,2.17
			c1.12,0,1.96-0.84,1.96-1.96c0-0.94-0.66-1.61-1.56-1.76c0.54-0.69,1.51-1.35,3.01-1.35c1.86,0,3.24,1.3,3.24,3.24
			c0,3.52-3.44,6.43-8.42,11.07v1.4h12.45v-6.02H245.67z M223.41,343.53c-1.89,0-2.91-1.56-2.91-3.85c0-2.32,1.02-3.95,2.91-3.95
			c1.91,0,3.04,1.71,3.04,3.98C226.44,341.95,225.32,343.53,223.41,343.53 M223.33,334.07c-3.83,0-6.35,2.5-6.35,5.82
			c0,3.11,2.24,5.28,5.51,5.28c1.79,0,3.39-0.66,4.51-2.14c-0.15,4.79-1.53,7.27-4.67,7.27c-0.92,0-1.74-0.2-2.32-0.61
			c0.69-0.28,1.2-0.92,1.2-1.76c0-1.07-0.79-1.86-1.94-1.86c-0.99,0-1.91,0.61-1.91,2.01c0,2.22,2.3,3.85,5.33,3.85
			c5.05,0,7.65-4.51,7.65-9.72C230.34,337.08,227.56,334.07,223.33,334.07 M209.81,349.75c-0.51,0-0.79-0.28-0.79-0.79v-14.79h-2.68
			c-0.41,2.04-0.99,2.6-4.36,2.73v1.63h3.65v10.43c0,0.51-0.28,0.79-0.79,0.79h-3.03v1.91h11.22v-1.91H209.81z"/>
		<path class="st3" d="M385.55,132.51l-0.93-1.44l7.11-4.62l0.93,1.44c1.18,1.81,0.43,3.77-1.71,5.16
			C388.82,134.43,386.72,134.32,385.55,132.51 M393.66,127.23l-3.01-4.63l-1,0.65l0.58,0.9c0.17,0.27,0.12,0.51-0.15,0.69
			l-6.28,4.08c-0.27,0.17-0.51,0.12-0.69-0.15l-0.58-0.9l-1.01,0.65l3.01,4.63c1.77,2.73,5,3.76,7.76,1.96
			C395.07,133.32,395.43,129.96,393.66,127.23 M385.23,115.37l-2.85-3.58l-0.94,0.75l0.74,0.93c0.2,0.25,0.17,0.5-0.08,0.7
			l-4.08,3.25l2.08-8.49l-2.16-2.71l-0.94,0.74l0.67,0.84c0.2,0.25,0.17,0.5-0.08,0.7l-5.86,4.66c-0.25,0.2-0.5,0.17-0.7-0.08
			l-0.67-0.84l-0.94,0.75l2.88,3.62l0.94-0.74l-0.76-0.95c-0.2-0.25-0.17-0.5,0.08-0.7l5.01-3.98l-2.41,9.98l0.59,0.74l7.19-5.72
			c0.25-0.2,0.5-0.17,0.7,0.08l0.66,0.83L385.23,115.37z M361.1,98.71l4.14-1.71l-1.73,4.14L361.1,98.71z M364.5,106.17
			c-0.2-0.21-0.34-0.52-0.2-0.88l3.7-9.35l-0.96-0.97l-9.23,3.65c-0.27,0.11-0.65,0.12-0.93-0.16l-0.43-0.43l-0.85,0.84l2.92,2.95
			l0.85-0.84l-0.72-0.73c-0.22-0.23-0.15-0.48,0.12-0.59l1.28-0.52l3.02,3.06l-0.54,1.3c-0.11,0.29-0.38,0.3-0.59,0.09l-0.66-0.67
			l-0.85,0.84l3.59,3.63l0.85-0.84L364.5,106.17z M348.12,78.89l-3.71-2.67l-0.7,0.97l0.96,0.69c0.26,0.19,0.3,0.43,0.11,0.69
			l-3.05,4.23l-0.3-8.73l-2.82-2.03l-0.7,0.97l0.87,0.63c0.26,0.19,0.3,0.43,0.11,0.69l-4.38,6.08c-0.19,0.26-0.43,0.3-0.69,0.11
			l-0.87-0.63l-0.7,0.97l3.75,2.7l0.7-0.97l-0.99-0.71c-0.26-0.19-0.3-0.43-0.11-0.69l3.74-5.2l0.39,10.25l0.77,0.55l5.37-7.45
			c0.19-0.26,0.43-0.3,0.69-0.11l0.86,0.62L348.12,78.89z M329.15,67.83l0.96,0.58l0.61-1.03l-4.69-2.81l-0.62,1.03l0.96,0.58
			c0.27,0.16,0.33,0.41,0.17,0.68l-3.85,6.42c-0.16,0.27-0.41,0.33-0.68,0.17l-0.96-0.58l-0.62,1.03l4.69,2.81l0.62-1.03l-0.96-0.58
			c-0.27-0.16-0.34-0.41-0.17-0.68l3.85-6.42C328.64,67.72,328.88,67.66,329.15,67.83 M307.72,63.24l3.31-3.02l-0.21,4.49
			L307.72,63.24z M313.46,69.1c-0.26-0.12-0.49-0.38-0.49-0.76l0.29-10.05l-1.23-0.58l-7.43,6.59c-0.22,0.2-0.57,0.33-0.93,0.16
			l-0.55-0.26l-0.51,1.08l3.75,1.78l0.51-1.08l-0.93-0.44c-0.29-0.14-0.31-0.39-0.09-0.59l1.03-0.93l3.89,1.85l-0.06,1.4
			c-0.01,0.32-0.25,0.41-0.52,0.28l-0.85-0.4l-0.51,1.08l4.61,2.19l0.51-1.08L313.46,69.1z M294.28,52.09l1.16,0.42
			c1.49,0.54,1.88,1.78,1.49,2.86c-0.41,1.14-1.52,1.92-3.01,1.38l-1.16-0.42L294.28,52.09z M293.9,57.98
			c2.48,0.89,4.62,0.05,5.28-1.79c0.64-1.78-0.48-3.77-2.96-4.67l-5.12-1.84l-0.4,1.13l1.01,0.36c0.3,0.11,0.41,0.33,0.3,0.63
			l-2.53,7.05c-0.11,0.3-0.33,0.41-0.64,0.3l-1.01-0.36l-0.41,1.13l5.87,2.11l0.4-1.13l-1.82-0.65c-0.3-0.11-0.41-0.33-0.3-0.63
			l0.78-2.18L293.9,57.98z M275.6,48.2c0.22-0.87,1.13-1.33,2.45-1c1.01,0.25,1.54,0.76,1.82,1.22c-0.5,0.02-0.93,0.24-1.08,0.82
			c-0.17,0.67,0.2,1.19,0.88,1.36c0.67,0.17,1.27-0.06,1.48-0.88c0.34-1.37-0.73-2.99-3.12-3.59c-2.24-0.56-4.05,0.24-4.51,2.08
			c-0.95,3.79,5.03,3.9,4.35,6.6c-0.23,0.93-1.21,1.41-2.5,1.09c-1.27-0.32-1.82-1.03-2.07-1.67c0.55,0.06,1.07-0.19,1.22-0.78
			c0.15-0.61-0.12-1.22-0.85-1.4c-0.67-0.17-1.38,0.17-1.59,1.04c-0.35,1.41,0.63,3.26,3.27,3.92c2.38,0.6,4.26-0.3,4.73-2.15
			C281.02,51,274.99,50.64,275.6,48.2 M254.21,42.32l-4.55-0.43l-0.11,1.19l1.18,0.11c0.32,0.03,0.48,0.22,0.45,0.54l-0.5,5.19
			l-4.67-7.39l-3.46-0.33l-0.11,1.19l1.07,0.1c0.32,0.03,0.48,0.22,0.45,0.54l-0.71,7.46c-0.03,0.32-0.22,0.48-0.54,0.45l-1.07-0.1
			l-0.11,1.19l4.6,0.44l0.11-1.19l-1.21-0.11c-0.32-0.03-0.48-0.22-0.45-0.54l0.61-6.37l5.51,8.66l0.94,0.09l0.87-9.14
			c0.03-0.32,0.22-0.48,0.54-0.45l1.05,0.1L254.21,42.32z M232.08,42.54l1.12-0.01l-0.01-1.2l-5.47,0.04l0.01,1.2l1.12-0.01
			c0.32,0,0.5,0.17,0.5,0.49l0.05,7.49c0,0.32-0.17,0.5-0.49,0.5l-1.12,0.01l0.01,1.2l5.47-0.04l-0.01-1.2l-1.12,0.01
			c-0.32,0-0.5-0.17-0.5-0.49l-0.05-7.49C231.59,42.72,231.76,42.54,232.08,42.54 M202.17,46.49c-0.13-0.89,0.53-1.66,1.88-1.86
			c1.03-0.15,1.72,0.12,2.15,0.43c-0.45,0.21-0.77,0.58-0.68,1.17c0.1,0.68,0.63,1.02,1.33,0.92c0.68-0.1,1.15-0.54,1.03-1.38
			c-0.2-1.39-1.82-2.48-4.26-2.12c-2.28,0.33-3.65,1.76-3.38,3.65c0.57,3.86,6.13,1.69,6.54,4.45c0.14,0.95-0.58,1.77-1.9,1.96
			c-1.3,0.19-2.08-0.26-2.55-0.76c0.53-0.16,0.92-0.59,0.83-1.19c-0.09-0.62-0.58-1.08-1.32-0.97c-0.68,0.1-1.21,0.68-1.08,1.57
			c0.21,1.44,1.83,2.77,4.52,2.38c2.42-0.35,3.83-1.9,3.55-3.78C208.25,47.01,202.54,48.98,202.17,46.49 M190.51,46.45l-4.44,1.11
			l0.29,1.16l1.15-0.29c0.31-0.08,0.52,0.05,0.6,0.36l1.27,5.06l-6.87-5.4l-3.37,0.84l0.29,1.16l1.04-0.26
			c0.31-0.08,0.52,0.05,0.6,0.36l1.82,7.27c0.08,0.31-0.05,0.52-0.36,0.6l-1.04,0.26l0.29,1.16l4.48-1.12l-0.29-1.16l-1.18,0.3
			c-0.31,0.08-0.52-0.05-0.6-0.36l-1.56-6.21l8.08,6.32l0.91-0.23l-2.23-8.91c-0.08-0.31,0.05-0.52,0.36-0.6l1.02-0.26L190.51,46.45
			z M165.37,61.6l0.14-4.48l3.07,3.28L165.37,61.6z M173.57,61.56c-0.27,0.1-0.62,0.09-0.89-0.18l-7.01-7.2l-1.28,0.47l-0.45,9.92
			c-0.01,0.29-0.15,0.64-0.53,0.78l-0.57,0.21l0.42,1.12l3.88-1.45l-0.42-1.12l-0.96,0.36c-0.3,0.11-0.5-0.05-0.49-0.35l0.05-1.39
			l4.03-1.5l0.96,1.03c0.22,0.22,0.12,0.47-0.16,0.57l-0.88,0.33l0.42,1.12l4.78-1.78l-0.42-1.12L173.57,61.56z M153.52,66.76
			c0.42,1.94-0.08,3.54-1.62,4.31c-1.86,0.94-3.77,0.04-5.01-2.44c-1.26-2.5-0.71-4.46,1.15-5.4c1.26-0.63,2.2-0.34,2.77,0.02
			c-0.33,0.38-0.41,0.89-0.17,1.37c0.32,0.63,1.05,0.87,1.75,0.52c0.64-0.32,1-1.06,0.59-1.89c-0.68-1.34-3.12-2.24-5.73-0.92
			c-2.94,1.49-3.96,4.69-2.52,7.54c1.43,2.83,4.56,3.97,7.52,2.48c2.2-1.11,3.2-3.14,2.42-5.82L153.52,66.76z M133.92,71.52
			l0.95-0.59l-0.63-1.02l-4.66,2.87l0.63,1.02l0.95-0.59c0.27-0.17,0.51-0.11,0.68,0.16l3.93,6.38c0.17,0.27,0.11,0.52-0.16,0.68
			l-0.95,0.59l0.63,1.02l4.66-2.87l-0.63-1.02l-0.95,0.59c-0.27,0.17-0.51,0.11-0.68-0.16l-3.93-6.38
			C133.59,71.93,133.65,71.68,133.92,71.52 M120.65,85.9l-1.09,0.82l-2.5-3.3l1.08-0.82c1.29-0.98,2.44-0.7,3.09,0.15
			C121.89,83.61,121.94,84.93,120.65,85.9 M127.54,86.12c-0.55,0.42-0.86,0.49-1.29,0.28l-1.27-0.62c-0.95-0.46-1.91-0.3-2.73,0.08
			c1.14-1.12,1.86-3.21,0.8-4.62c-1.01-1.33-3.04-1.55-5.3,0.16l-4.44,3.36l0.72,0.96l0.85-0.65c0.26-0.19,0.5-0.16,0.69,0.1
			l4.52,5.97c0.19,0.26,0.16,0.5-0.1,0.7l-0.85,0.65l0.72,0.95l4.25-3.22l-0.72-0.95l-0.82,0.62c-0.26,0.19-0.5,0.16-0.7-0.1
			l-1.59-2.11l0.56-0.43c0.5-0.38,1.18-0.65,1.9-0.14l2.97,1.88l3.14-2.38l-0.72-0.95L127.54,86.12z M110.36,97.57
			c0.66,0.91,1.31,1.73,0.25,2.71l-2.03,1.86l-2.02-2.19l0.95-0.88c0.64-0.58,1.16,0,1.74,0.47l0.73-0.67l-2.87-3.12l-0.73,0.67
			c0.42,0.62,0.95,1.2,0.32,1.77l-0.95,0.88l-2.92-3.17l1.79-1.65c1.06-0.97,1.76-0.21,2.62,0.53l0.94-0.87l-2.27-2.47l-6.69,6.15
			l0.81,0.88l0.79-0.73c0.24-0.22,0.49-0.21,0.7,0.03l5.07,5.51c0.22,0.23,0.21,0.48-0.03,0.7l-0.79,0.73l0.81,0.88l6.98-6.42
			l-2.27-2.47L110.36,97.57z M93.08,106.18l0.69-0.8l-0.91-0.78l-2.49,2.9l2.4,5.89l-6.37-1.24l-2.57,3l0.91,0.78l0.7-0.81
			c0.21-0.24,0.46-0.26,0.7-0.05l5.69,4.87c0.24,0.21,0.26,0.46,0.05,0.7l-0.7,0.81l0.91,0.78l2.9-3.39l-0.91-0.78l-0.69,0.8
			c-0.21,0.24-0.46,0.26-0.7,0.05l-5.13-4.39l6.82,1.41l0.5-0.58l-2.67-6.31l5.16,4.41c0.24,0.21,0.26,0.46,0.05,0.7l-0.56,0.66
			l0.91,0.78l3.35-3.91l-0.91-0.78l-0.69,0.8c-0.21,0.24-0.46,0.26-0.7,0.05l-5.69-4.87C92.89,106.67,92.87,106.42,93.08,106.18
			 M79.71,133.13l-2.46-3.74l4.4,0.91L79.71,133.13z M86.39,128.38c-0.16,0.24-0.45,0.43-0.83,0.36l-9.88-1.86l-0.77,1.12l5.34,8.37
			c0.16,0.25,0.24,0.61,0.01,0.94l-0.34,0.5l0.99,0.68l2.34-3.42l-0.99-0.68l-0.58,0.85c-0.18,0.26-0.44,0.24-0.6,0l-0.76-1.16
			l2.43-3.55l1.38,0.28c0.31,0.06,0.37,0.31,0.2,0.56l-0.53,0.78l0.99,0.68l2.88-4.21l-0.99-0.68L86.39,128.38z"/>
		<path class="st3" d="M393.51,312.3l-4.2,8.85l3.58,1.7l0.51-1.08c-1.35-0.78-2.53-1.32-1.9-2.64l0.43-0.91l7.29,3.46
			c0.29,0.14,0.37,0.37,0.24,0.66l-0.6,1.26l1.08,0.51l2.57-5.42l-1.08-0.51l-0.59,1.24c-0.14,0.29-0.37,0.37-0.66,0.24l-7.29-3.46
			l0.43-0.91c0.62-1.3,1.79-0.75,3.24-0.2l0.51-1.08L393.51,312.3z M392.02,330.01c1.43,1.38,1.89,2.99,1.04,4.49
			c-1.03,1.81-3.11,2.12-5.52,0.75c-2.44-1.38-3.07-3.32-2.04-5.13c0.7-1.23,1.64-1.5,2.32-1.52c-0.06,0.5,0.15,0.97,0.62,1.24
			c0.61,0.35,1.35,0.14,1.74-0.54c0.35-0.63,0.25-1.44-0.56-1.9c-1.31-0.74-3.84-0.14-5.28,2.41c-1.63,2.87-0.7,6.09,2.08,7.67
			c2.76,1.56,6,0.77,7.63-2.11c1.22-2.14,0.92-4.38-1.22-6.19L392.02,330.01z M384.07,344.56c0.85,0.74,1.67,1.39,0.85,2.58
			l-1.56,2.27l-2.46-1.68l0.73-1.07c0.49-0.71,1.13-0.26,1.8,0.07l0.56-0.82l-3.5-2.39l-0.56,0.82c0.54,0.51,1.19,0.95,0.71,1.65
			l-0.73,1.07l-3.55-2.43l1.38-2.01c0.81-1.19,1.67-0.6,2.67-0.07l0.72-1.05l-2.77-1.9l-5.13,7.5l0.99,0.68l0.61-0.89
			c0.18-0.26,0.42-0.31,0.69-0.13l6.18,4.23c0.26,0.18,0.31,0.43,0.13,0.69l-0.61,0.88l0.99,0.68l5.36-7.83l-2.77-1.9L384.07,344.56
			z M365.99,355.85l0.93,0.76l1.63-2c0.2-0.25,0.45-0.27,0.7-0.07l4.64,3.78c0.94,0.77,1.29,1.94,0.41,3.02
			c-0.37,0.46-0.81,0.68-1.13,0.77c0.27-0.51,0.17-1.17-0.32-1.56c-0.53-0.43-1.22-0.33-1.68,0.24c-0.44,0.55-0.41,1.29,0.27,1.85
			c0.98,0.8,2.73,0.65,4.11-1.04c1.45-1.77,1.28-3.77-0.25-5.01l-4.64-3.78c-0.25-0.2-0.27-0.45-0.07-0.7l0.62-0.76l-0.93-0.76
			L365.99,355.85z M364.6,371.8c-1.37,1.42-3.4,1.08-5.37-0.82c-1.97-1.9-2.38-3.92-1.01-5.34c1.37-1.42,3.41-1.09,5.38,0.81
			C365.57,368.35,365.97,370.38,364.6,371.8 M357.38,364.83c-2.31,2.4-2.15,5.75,0.12,7.94c2.26,2.18,5.63,2.23,7.94-0.16
			c2.31-2.4,2.14-5.76-0.12-7.94C363.05,362.48,359.7,362.43,357.38,364.83 M349.22,379.76l-1.03,0.88l-2.7-3.15l1.03-0.88
			c1.23-1.05,2.39-0.85,3.09-0.03S350.45,378.71,349.22,379.76 M356.11,379.57c-0.52,0.45-0.82,0.54-1.28,0.35l-1.31-0.55
			c-0.98-0.41-1.93-0.18-2.72,0.24c1.07-1.19,1.66-3.32,0.52-4.66c-1.08-1.26-3.13-1.37-5.28,0.48l-4.23,3.62l0.78,0.91l0.81-0.7
			c0.24-0.21,0.49-0.19,0.7,0.05l4.87,5.69c0.21,0.24,0.19,0.49-0.06,0.7l-0.81,0.7l0.78,0.91l4.05-3.46l-0.78-0.91l-0.78,0.67
			c-0.24,0.21-0.49,0.19-0.7-0.05l-1.72-2.01l0.54-0.46c0.48-0.41,1.13-0.72,1.89-0.25l3.08,1.7l2.99-2.56l-0.78-0.91L356.11,379.57
			z M333.69,386.4l1-0.72c1.29-0.93,2.53-0.54,3.21,0.39c0.71,0.99,0.72,2.34-0.57,3.27l-1,0.72L333.69,386.4z M338.32,390.04
			c2.14-1.54,2.66-3.78,1.52-5.37c-1.1-1.53-3.38-1.74-5.53-0.2l-4.41,3.18l0.7,0.97l0.87-0.63c0.26-0.19,0.51-0.15,0.69,0.11
			l4.38,6.08c0.19,0.26,0.15,0.51-0.11,0.69l-0.87,0.63l0.7,0.97l5.06-3.65l-0.7-0.97l-1.57,1.13c-0.26,0.19-0.51,0.15-0.69-0.11
			L337,391L338.32,390.04z M315.19,398.99c-0.43-0.79-0.08-1.74,1.11-2.4c0.91-0.5,1.65-0.49,2.16-0.35
			c-0.35,0.36-0.52,0.82-0.23,1.33c0.33,0.6,0.95,0.74,1.57,0.4c0.6-0.33,0.89-0.91,0.48-1.65c-0.68-1.23-2.57-1.69-4.73-0.5
			c-2.02,1.11-2.8,2.93-1.88,4.6c1.88,3.42,6.34-0.57,7.68,1.87c0.46,0.84,0.07,1.86-1.09,2.5c-1.15,0.63-2.04,0.48-2.66,0.19
			c0.44-0.33,0.65-0.87,0.36-1.4c-0.3-0.55-0.92-0.81-1.58-0.45c-0.6,0.33-0.9,1.06-0.46,1.84c0.7,1.28,2.68,1.95,5.07,0.64
			c2.14-1.18,2.92-3.12,2-4.79C321.06,397.35,316.4,401.19,315.19,398.99 M304.34,407.24l-1.24,0.55l-1.68-3.79l1.24-0.55
			c1.48-0.66,2.54-0.13,2.97,0.85C306.06,405.28,305.82,406.58,304.34,407.24 M311,409.02c-0.63,0.28-0.94,0.28-1.32-0.02l-1.1-0.9
			c-0.82-0.67-1.79-0.73-2.67-0.54c1.36-0.83,2.54-2.71,1.83-4.31c-0.68-1.52-2.61-2.2-5.19-1.05l-5.09,2.26l0.49,1.1l0.98-0.44
			c0.29-0.13,0.52-0.04,0.65,0.25l3.04,6.84c0.13,0.29,0.04,0.52-0.25,0.65l-0.98,0.44l0.49,1.1l4.87-2.17l-0.49-1.1l-0.94,0.42
			c-0.29,0.13-0.53,0.04-0.65-0.25l-1.07-2.41l0.64-0.29c0.57-0.25,1.29-0.36,1.89,0.3l2.46,2.51l3.6-1.6l-0.49-1.09L311,409.02z
			 M293.76,413.61c0.24,1.1,0.51,2.11-0.85,2.58l-2.6,0.9l-0.97-2.82l1.23-0.42c0.82-0.28,1.06,0.47,1.4,1.12l0.94-0.32l-1.38-4.01
			l-0.94,0.32c0.13,0.73,0.39,1.47-0.41,1.75l-1.23,0.42l-1.41-4.07l2.3-0.79c1.36-0.47,1.7,0.51,2.19,1.53l1.21-0.42l-1.1-3.17
			l-8.59,2.97l0.39,1.13l1.01-0.35c0.3-0.1,0.53,0.01,0.63,0.31l2.44,7.08c0.1,0.3,0,0.53-0.31,0.63l-1.01,0.35l0.39,1.13l8.97-3.1
			l-1.1-3.17L293.76,413.61z M279.07,417.07c0.28,1.64,0.39,3.05-1.01,3.4l-2.24,0.56l-1.94-7.75c-0.08-0.31,0.05-0.52,0.36-0.6
			l1.49-0.37l-0.29-1.16l-5.66,1.42l0.29,1.16l1.04-0.26c0.31-0.08,0.52,0.05,0.6,0.36l1.82,7.26c0.08,0.31-0.05,0.52-0.36,0.6
			l-1.04,0.26l0.29,1.16l8.84-2.22l-1.03-4.13L279.07,417.07z M264.6,421.03c0.05,1.12,0.13,2.17-1.29,2.39l-2.72,0.43l-0.47-2.94
			l1.28-0.2c0.85-0.14,0.96,0.64,1.19,1.35l0.98-0.15l-0.67-4.19l-0.98,0.15c0,0.74,0.13,1.52-0.71,1.65l-1.28,0.2l-0.68-4.25
			l2.4-0.38c1.42-0.23,1.59,0.8,1.89,1.89l1.26-0.2l-0.53-3.32l-8.97,1.43l0.19,1.18l1.06-0.17c0.32-0.05,0.52,0.1,0.57,0.41
			l1.18,7.4c0.05,0.32-0.1,0.52-0.41,0.57l-1.06,0.17l0.19,1.18l9.37-1.49l-0.53-3.32L264.6,421.03z M246.92,415.56l0.08,1.2
			l1.09-0.08c0.29-0.02,0.41,0.16,0.32,0.43l-2.18,6.65l-3.07-6.25c-0.13-0.28-0.02-0.48,0.27-0.5l0.97-0.07l-0.08-1.2l-5.17,0.36
			l0.08,1.2l0.61-0.04c0.34-0.02,0.62,0.08,0.8,0.42l4.6,8.9l1.36-0.1l3.17-9.41c0.1-0.33,0.32-0.54,0.71-0.56l0.6-0.04l-0.08-1.2
			L246.92,415.56z M228.81,422.8l1.72-4.13l1.7,4.15L228.81,422.8z M236.49,425.68c-0.29,0-0.61-0.13-0.76-0.49l-3.99-9.23
			l-1.36-0.01l-3.95,9.11c-0.11,0.27-0.37,0.54-0.77,0.54l-0.61,0l-0.01,1.2l4.15,0.03l0.01-1.2l-1.02-0.01
			c-0.32,0-0.45-0.23-0.33-0.5l0.54-1.28l4.3,0.03l0.54,1.3c0.13,0.29-0.05,0.48-0.36,0.48l-0.94-0.01l-0.01,1.2l5.1,0.03l0.01-1.2
			L236.49,425.68z M214.08,420.2l-1.35-0.13l0.39-4.13l1.36,0.13c1.61,0.15,2.27,1.13,2.17,2.2
			C216.54,419.34,215.69,420.35,214.08,420.2 M219.01,425.03c-0.68-0.07-0.96-0.22-1.14-0.67l-0.52-1.32
			c-0.39-0.99-1.21-1.51-2.06-1.79c1.6-0.06,3.54-1.11,3.71-2.86c0.16-1.66-1.19-3.2-4.01-3.47l-5.54-0.53l-0.11,1.19l1.07,0.1
			c0.32,0.03,0.48,0.22,0.45,0.54l-0.71,7.46c-0.03,0.32-0.22,0.48-0.54,0.45l-1.07-0.1l-0.11,1.19l5.3,0.51l0.11-1.19l-1.02-0.1
			c-0.32-0.03-0.48-0.22-0.45-0.54l0.25-2.63l0.7,0.07c0.62,0.06,1.3,0.32,1.49,1.19l0.92,3.4l3.92,0.37l0.11-1.19L219.01,425.03z
			 M204.6,413.42l-9.63-1.78l-0.72,3.9l1.18,0.22c0.41-1.5,0.63-2.78,2.06-2.51l0.99,0.18l-1.47,7.93c-0.06,0.32-0.26,0.46-0.58,0.4
			l-1.37-0.25l-0.22,1.18l5.9,1.09l0.22-1.18l-1.35-0.25c-0.32-0.06-0.46-0.26-0.4-0.58l1.47-7.93l0.99,0.18
			c1.42,0.26,1.18,1.54,1.02,3.09l1.18,0.22L204.6,413.42z M181.87,409.11l1.02,0.34l0.38-1.14l-4.98-1.65l-0.38,1.14l0.9,0.3
			c0.3,0.1,0.42,0.32,0.32,0.63l-1.2,3.62l-4.29-1.42l1.2-3.62c0.1-0.3,0.32-0.42,0.63-0.31l0.9,0.3l0.38-1.14l-4.98-1.65
			l-0.38,1.14l1.02,0.34c0.3,0.1,0.42,0.32,0.32,0.63l-2.36,7.11c-0.1,0.3-0.32,0.42-0.63,0.32l-1.02-0.34l-0.38,1.14l4.98,1.65
			l0.38-1.14l-0.9-0.3c-0.3-0.1-0.41-0.32-0.31-0.63l0.78-2.36l4.29,1.42l-0.78,2.36c-0.1,0.3-0.32,0.42-0.63,0.32l-0.9-0.3
			l-0.38,1.14l4.98,1.65l0.38-1.14l-1.02-0.34c-0.3-0.1-0.41-0.32-0.31-0.63l2.36-7.11C181.34,409.12,181.57,409.01,181.87,409.11
			 M160.74,402.31c0.35-0.82,1.33-1.14,2.58-0.6c0.96,0.41,1.4,1,1.6,1.49c-0.5-0.06-0.96,0.09-1.2,0.64
			c-0.27,0.63,0.01,1.2,0.65,1.48c0.63,0.27,1.26,0.14,1.6-0.64c0.56-1.29-0.25-3.07-2.51-4.04c-2.12-0.91-4.04-0.41-4.79,1.34
			c-1.54,3.59,4.34,4.65,3.24,7.21c-0.38,0.88-1.42,1.2-2.64,0.67c-1.21-0.52-1.63-1.31-1.78-1.98c0.53,0.14,1.09-0.02,1.33-0.58
			c0.25-0.57,0.07-1.22-0.62-1.52c-0.63-0.27-1.39-0.06-1.74,0.77c-0.58,1.34,0.1,3.32,2.6,4.39c2.25,0.97,4.26,0.39,5.01-1.36
			C165.64,405.93,159.75,404.61,160.74,402.31 M153.45,397.24l0.99,0.52l0.55-1.06l-4.85-2.52l-0.55,1.06l0.99,0.52
			c0.28,0.15,0.36,0.39,0.21,0.67l-3.46,6.64c-0.15,0.28-0.38,0.36-0.67,0.21l-0.99-0.52l-0.55,1.06l4.85,2.52l0.55-1.06l-0.99-0.52
			c-0.28-0.15-0.36-0.39-0.21-0.67l3.45-6.64C152.93,397.17,153.16,397.09,153.45,397.24 M145.93,391.68l-3.9-2.4l-0.63,1.02
			l1.01,0.62c0.27,0.17,0.33,0.41,0.16,0.68l-2.74,4.44l-0.93-8.69l-2.96-1.82l-0.63,1.02l0.91,0.56c0.27,0.17,0.33,0.41,0.16,0.68
			l-3.93,6.38c-0.17,0.27-0.41,0.33-0.68,0.16l-0.91-0.56l-0.63,1.02l3.94,2.42l0.63-1.02l-1.04-0.64
			c-0.27-0.17-0.33-0.41-0.16-0.68l3.36-5.45l1.12,10.2l0.8,0.49l4.82-7.82c0.17-0.27,0.41-0.33,0.68-0.16l0.9,0.55L145.93,391.68z
			 M121.86,383.36l3.85-2.28l-1.12,4.35L121.86,383.36z M126.29,390.26c-0.23-0.17-0.41-0.47-0.32-0.85l2.33-9.78l-1.08-0.82
			l-8.62,4.94c-0.25,0.15-0.62,0.21-0.94-0.03l-0.49-0.37l-0.72,0.95l3.31,2.5l0.72-0.95l-0.82-0.62c-0.25-0.19-0.22-0.45,0.03-0.6
			l1.19-0.7l3.43,2.6l-0.35,1.36c-0.07,0.31-0.33,0.35-0.57,0.17l-0.75-0.57l-0.72,0.95l4.07,3.08l0.72-0.96L126.29,390.26z
			 M115.61,370.44l0.92,0.82c1.18,1.06,1.07,2.36,0.3,3.21c-0.81,0.9-2.14,1.2-3.31,0.14l-0.92-0.82L115.61,370.44z M113.04,375.74
			c1.96,1.76,4.26,1.79,5.57,0.33c1.26-1.4,0.98-3.68-0.98-5.44l-4.05-3.63l-0.8,0.89l0.8,0.72c0.24,0.21,0.25,0.46,0.04,0.7
			l-5,5.57c-0.21,0.24-0.46,0.25-0.7,0.04l-0.8-0.72l-0.8,0.89l4.64,4.17l0.8-0.89l-1.44-1.29c-0.24-0.21-0.25-0.46-0.04-0.7
			l1.55-1.73L113.04,375.74z M104.23,360.69c0.65-0.61,1.67-0.52,2.6,0.47c0.71,0.76,0.88,1.48,0.88,2.01
			c-0.43-0.25-0.92-0.3-1.35,0.11c-0.5,0.47-0.48,1.11,0.01,1.62c0.47,0.5,1.1,0.63,1.72,0.05c1.03-0.97,0.99-2.91-0.7-4.7
			c-1.58-1.68-3.54-1.99-4.92-0.68c-2.84,2.68,2.13,5.99,0.1,7.9c-0.7,0.66-1.78,0.53-2.69-0.43c-0.9-0.96-0.98-1.85-0.84-2.53
			c0.43,0.34,1.01,0.41,1.45,0c0.46-0.43,0.55-1.09,0.04-1.64c-0.47-0.5-1.25-0.6-1.9,0.01c-1.06,1-1.22,3.09,0.64,5.07
			c1.68,1.78,3.75,2.05,5.14,0.74C107.29,365.97,102.4,362.42,104.23,360.69 M89.61,350.88c-0.98,0.56-1.86,1.11-2.72-0.04
			l-1.63-2.21l2.39-1.77l0.77,1.04c0.51,0.7-0.13,1.15-0.65,1.68l0.59,0.8l3.41-2.52l-0.59-0.8c-0.66,0.35-1.29,0.81-1.79,0.13
			l-0.77-1.04l3.46-2.56l1.45,1.96c0.85,1.16,0.02,1.78-0.81,2.54l0.76,1.03l2.7-1.99l-5.4-7.31l-0.96,0.71l0.64,0.86
			c0.19,0.26,0.15,0.5-0.1,0.69l-6.02,4.45c-0.26,0.19-0.5,0.15-0.69-0.1l-0.64-0.86l-0.96,0.71l5.64,7.63l2.7-2L89.61,350.88z
			 M86.63,335.41l0.56,0.91l1.02-0.63l-2.75-4.47l-1.02,0.63l0.5,0.8c0.17,0.27,0.11,0.51-0.16,0.68l-3.24,2l-2.37-3.84l3.24-2
			c0.27-0.17,0.51-0.11,0.68,0.16l0.5,0.81l1.02-0.63l-2.75-4.47L80.83,326l0.56,0.91c0.17,0.27,0.11,0.52-0.16,0.68l-6.38,3.93
			c-0.27,0.17-0.51,0.11-0.68-0.16l-0.56-0.91l-1.02,0.63l2.75,4.47l1.02-0.63l-0.5-0.8c-0.17-0.27-0.11-0.51,0.16-0.68l2.11-1.3
			l2.37,3.84l-2.11,1.3c-0.27,0.17-0.51,0.11-0.68-0.16l-0.5-0.8l-1.02,0.63l2.75,4.47l1.02-0.63l-0.56-0.91
			c-0.17-0.27-0.11-0.51,0.16-0.68l6.38-3.93C86.22,335.08,86.46,335.14,86.63,335.41 M79.81,320.97l-4.3-8.79l-3.56,1.74l0.53,1.08
			c1.45-0.57,2.61-1.15,3.25,0.16l0.44,0.91l-7.25,3.55c-0.29,0.14-0.52,0.06-0.66-0.23l-0.61-1.25l-1.08,0.53l2.64,5.39l1.08-0.53
			l-0.6-1.24c-0.14-0.29-0.06-0.52,0.23-0.66l7.25-3.54l0.44,0.91c0.63,1.29-0.53,1.86-1.87,2.66l0.53,1.08L79.81,320.97z"/>
	</g>
</g>
</svg>
