<?xml version="1.0" encoding="utf-8"?>
<!-- Generator: Adobe Illustrator 22.1.0, SVG Export Plug-In . SVG Version: 6.00 Build 0)  -->
<svg version="1.1" id="Layer_1" xmlns="http://www.w3.org/2000/svg" xmlns:xlink="http://www.w3.org/1999/xlink" x="0px" y="0px"
	 viewBox="0 0 163.2 95.3" style="enable-background:new 0 0 163.2 95.3;" xml:space="preserve">
<g>
	<path d="M21.7,58.3H17l-1.7-4.9H7.6l-1.7,4.9H1.5L9.1,37H14L21.7,58.3z M11.4,42c-0.4,1.4-2.5,7.8-2.5,7.8H14
		C14,49.7,11.8,43.3,11.4,42L11.4,42z"/>
</g>
<g>
	<path d="M34.9,49.5l4.9,8.7h-5l-4.4-8.1h-2.8v8.1H23V37h7.8c4.9,0,8.1,1.9,8.1,6.5C38.9,46.6,37.4,48.6,34.9,49.5z M30.3,40.8h-2.7
		v5.7h2.7c2.6,0,4-0.9,4-3C34.3,41.4,32.9,40.8,30.3,40.8z"/>
</g>
<g>
	<path d="M39.7,37h16.9v3.8h-6.1v17.5h-4.6V40.8h-6.1V37z"/>
</g>
<g>
	<path d="M9.4,89.7c-1.2-3.3-3.9-11.5-5.1-15.3H4.3v15.3H0.1V68.5h6.4c0,0,4.6,13.7,5.2,15.8c0.6-2.1,5-15.8,5-15.8h6.4v21.3h-4.2
		V74.5h-0.1c-1.2,3.8-4.2,12.7-5.1,15.3H9.4z"/>
</g>
<g>
	<path d="M9.4,26.8c-1.2-3.3-3.9-11.5-5.1-15.3H4.3v15.3H0.1V5.5h6.4c0,0,4.6,13.7,5.2,15.8c0.6-2.1,5-15.8,5-15.8h6.4v21.3h-4.2
		V11.5h-0.1c-1.2,3.8-4.2,12.7-5.1,15.3H9.4z"/>
</g>
<g>
	<path d="M26.1,81.9V68.5h4.6v13.5c0,2.6,1.3,4.5,4,4.5c2.7,0,4-1.9,4-4.5V68.5h4.6v13.4c0,5.2-2.6,8.3-8.5,8.3
		C28.7,90.2,26.1,87.1,26.1,81.9z"/>
</g>
<g>
	<path d="M55.3,77c5,0.9,7.4,2.6,7.4,6.4c0,4.1-3.6,6.7-8.6,6.7c-5.4,0-8.2-3-8.8-6.5H50c0.4,1.5,2,2.8,4.1,2.8
		c2.2,0,3.9-0.8,3.9-2.8c0-1.6-1.2-2.3-4.5-2.9c-4.4-0.7-7.8-2.2-7.8-6.4c0-4.3,3.4-6.4,8.1-6.4c4.8,0,7.6,2.3,8.4,6.1h-4.5
		c-0.7-1.5-1.6-2.4-4-2.4c-2.3,0-3.4,0.9-3.4,2.3C50.4,75.9,51.8,76.5,55.3,77z"/>
</g>
<g>
	<path d="M65,89.7V68.5h14.5v3.8h-10v4.7h9.3v3.8h-9.3V86h10v3.8H65z"/>
</g>
<g>
	<path d="M81.9,81.9V68.5h4.6v13.5c0,2.6,1.3,4.5,3.9,4.5c2.7,0,4-1.9,4-4.5V68.5H99v13.4c0,5.2-2.6,8.3-8.5,8.3
		C84.5,90.2,81.9,87.1,81.9,81.9z"/>
</g>
<g>
	<path d="M111.3,89.7c-1.2-3.3-3.9-11.5-5.1-15.3h-0.1v15.3H102V68.5h6.4c0,0,4.6,13.7,5.2,15.8c0.6-2.1,5-15.8,5-15.8h6.4v21.3
		h-4.2V74.4h-0.1c-1.2,3.8-4.2,12.7-5.1,15.3H111.3z"/>
</g>
<rect y="31.5" width="163.2" height="0.9"/>
<rect y="62.9" width="163.2" height="0.9"/>
<rect width="163.2" height="0.9"/>
<rect y="94.4" width="163.2" height="0.9"/>
<g>
	<path d="M26.1,5.5h4.7v21.3h-4.7V5.5z"/>
</g>
<g>
	<path d="M33.8,5.5h4.6V23h7.7l1.4,3.8H33.8V5.5z"/>
</g>
<g>
	<path d="M73.2,5.5l-5.4,21.3h-5.4c0,0-2.4-10.3-3.3-14.1h-0.1c-0.8,3.8-3.4,14.1-3.4,14.1h-5.4L44.8,5.5h4.7c0,0,2.9,12,3.6,15.9
		h0.1c0.8-3.9,3.8-15.9,3.8-15.9h4.4c0,0,3,12,3.8,15.9h0.1c0.8-3.9,3.7-15.9,3.7-15.9H73.2z"/>
</g>
<g>
	<path d="M91.2,26.8h-4.8l-1.7-4.9h-7.8l-1.7,4.9h-4.6l7.8-21.3h5L91.2,26.8z M80.8,10.5c-0.4,1.4-2.6,7.7-2.6,7.7h5.2
		C83.4,18.3,81.2,11.9,80.8,10.5L80.8,10.5z"/>
</g>
<g>
	<path d="M91.7,19V5.5h4.6V19c0,2.6,1.3,4.5,4,4.5c2.7,0,4-1.9,4-4.5V5.5h4.7V19c0,5.2-2.6,8.3-8.7,8.3C94.3,27.2,91.7,24.2,91.7,19
		z"/>
</g>
<g>
	<path d="M118.6,17.4l-1.8,2v7.4h-4.6V5.5h4.6v8.3l7.3-8.3h5.4l-7.7,8.6l8.5,12.7h-5.6L118.6,17.4z"/>
</g>
<g>
	<path d="M131.4,26.8V5.5h14.8v3.8h-10.2V14h9.5v3.8h-9.5V23h10.2v3.8H131.4z"/>
</g>
<g>
	<path d="M148.4,26.8V5.5h14.8v3.8h-10.2V14h9.5v3.8h-9.5V23h10.2v3.8H148.4z"/>
</g>
</svg>
